%
M48
M72
T01C0.0315
T02C0.0394
T03C0.0512
T04C0.1693
%
T01
X8000Y5500
X8750Y5500
X8250Y8250
X8250Y9000
X9250Y10750
X9250Y11500
X8750Y15625
X10750Y16500
X8250Y21000
X8625Y23250
X5750Y23250
X16500Y19500
X17750Y20750
X18500Y20875
X17000Y21500
X16500Y17250
X18750Y17250
X17000Y12375
X17000Y11625
X19625Y7875
X21000Y4750
T02
X22500Y17000
X22500Y18000
X22500Y19000
X22500Y20000
X22500Y21000
T03
X14774Y18939
X10049Y18939
X10049Y23742
X12411Y24530
X14774Y23742
X1750Y21506
X1750Y19506
X1750Y17506
X1750Y15506
X1750Y13506
X1750Y11506
X1750Y9506
X1750Y7506
X1750Y5506
T04
X1575Y1575
X22047Y1575
X22047Y25197
X1575Y25197
M30
