%
M48
M72
T01C0.0236
T02C0.0315
T03C0.0394
T04C0.0512
T05C0.1693
%
T01
X8000Y5500
X8750Y5500
X8250Y8250
X8250Y9000
X9250Y10750
X9250Y11500
X7625Y15625
X9875Y17125
X12750Y19500
X12750Y21000
X14375Y19500
X15750Y22000
X17125Y21250
X17375Y19250
X20250Y17000
X20750Y16000
X20250Y15375
X21250Y15375
X22250Y14500
X22250Y13625
X22750Y13125
X19250Y10500
X16875Y11250
X16875Y11875
X18500Y13125
X20250Y7750
X21125Y4750
X9625Y23125
X9625Y24125
T02
X10875Y20939
X10875Y19561
T03
X18250Y9500
X19250Y9500
X20250Y9500
X21250Y9500
X22250Y9500
T04
X2000Y9506
X2000Y7506
X2000Y5506
X2000Y11506
X2000Y13506
X2000Y15506
X2000Y17506
X2000Y19506
X2000Y21506
T05
X1575Y1575
X22047Y1575
X22047Y25197
X1575Y25197
M30
